<svg width="320" height="180" viewBox="0 0 320 180" fill="none" xmlns="http://www.w3.org/2000/svg">
<rect x="114" y="18" width="160" height="90" rx="1" fill="#242323"/>
<rect x="219" y="59" width="0.859649" height="42" fill="#202020"/>
<rect x="219" y="101" width="0.736842" height="49" transform="rotate(-90 219 101)" fill="#202020"/>
<rect x="224.158" y="73.7368" width="4.29825" height="26.5263" fill="#2656FF"/>
<rect x="255.965" y="64.1579" width="4.29825" height="36.1053" fill="#2656FF"/>
<rect x="247.368" y="93.6316" width="4.29825" height="6.63158" fill="#2656FF"/>
<rect x="239.632" y="81.8421" width="4.29825" height="18.4211" fill="#2656FF"/>
<path d="M231.895 87H236.193V100.263H231.895V87Z" fill="#2656FF"/>
<path d="M226.307 71.5263L233.614 84.7895L241.351 79.6316L249.518 91.7895L258.114 62.6842" stroke="white" stroke-width="1.11475"/>
<path d="M258.986 60.3688L260.243 63.8366L255.779 62.7419L258.986 60.3688Z" fill="white"/>
<path d="M125.326 32.574V36H124.162V32.574L121.012 27.402H122.032C122.136 27.402 122.218 27.428 122.278 27.48C122.338 27.528 122.39 27.592 122.434 27.672L124.402 31.014C124.474 31.154 124.54 31.286 124.6 31.41C124.66 31.53 124.712 31.652 124.756 31.776C124.8 31.652 124.85 31.53 124.906 31.41C124.962 31.286 125.024 31.154 125.092 31.014L127.054 27.672C127.09 27.604 127.14 27.542 127.204 27.486C127.268 27.43 127.35 27.402 127.45 27.402H128.476L125.326 32.574ZM130.584 29.826C131.028 29.826 131.428 29.9 131.784 30.048C132.14 30.196 132.444 30.406 132.696 30.678C132.948 30.95 133.14 31.28 133.272 31.668C133.408 32.052 133.476 32.482 133.476 32.958C133.476 33.438 133.408 33.87 133.272 34.254C133.14 34.638 132.948 34.966 132.696 35.238C132.444 35.51 132.14 35.72 131.784 35.868C131.428 36.012 131.028 36.084 130.584 36.084C130.136 36.084 129.732 36.012 129.372 35.868C129.016 35.72 128.712 35.51 128.46 35.238C128.208 34.966 128.014 34.638 127.878 34.254C127.746 33.87 127.68 33.438 127.68 32.958C127.68 32.482 127.746 32.052 127.878 31.668C128.014 31.28 128.208 30.95 128.46 30.678C128.712 30.406 129.016 30.196 129.372 30.048C129.732 29.9 130.136 29.826 130.584 29.826ZM130.584 35.25C131.184 35.25 131.632 35.05 131.928 34.65C132.224 34.246 132.372 33.684 132.372 32.964C132.372 32.24 132.224 31.676 131.928 31.272C131.632 30.868 131.184 30.666 130.584 30.666C130.28 30.666 130.014 30.718 129.786 30.822C129.562 30.926 129.374 31.076 129.222 31.272C129.074 31.468 128.962 31.71 128.886 31.998C128.814 32.282 128.778 32.604 128.778 32.964C128.778 33.684 128.926 34.246 129.222 34.65C129.522 35.05 129.976 35.25 130.584 35.25ZM139.828 29.922V36H139.192C139.04 36 138.944 35.926 138.904 35.778L138.82 35.124C138.556 35.416 138.26 35.652 137.932 35.832C137.604 36.008 137.228 36.096 136.804 36.096C136.472 36.096 136.178 36.042 135.922 35.934C135.67 35.822 135.458 35.666 135.286 35.466C135.114 35.266 134.984 35.024 134.896 34.74C134.812 34.456 134.77 34.142 134.77 33.798V29.922H135.838V33.798C135.838 34.258 135.942 34.614 136.15 34.866C136.362 35.118 136.684 35.244 137.116 35.244C137.432 35.244 137.726 35.17 137.998 35.022C138.274 34.87 138.528 34.662 138.76 34.398V29.922H139.828ZM142.536 31.14C142.728 30.724 142.964 30.4 143.244 30.168C143.524 29.932 143.866 29.814 144.27 29.814C144.398 29.814 144.52 29.828 144.636 29.856C144.756 29.884 144.862 29.928 144.954 29.988L144.876 30.786C144.852 30.886 144.792 30.936 144.696 30.936C144.64 30.936 144.558 30.924 144.45 30.9C144.342 30.876 144.22 30.864 144.084 30.864C143.892 30.864 143.72 30.892 143.568 30.948C143.42 31.004 143.286 31.088 143.166 31.2C143.05 31.308 142.944 31.444 142.848 31.608C142.756 31.768 142.672 31.952 142.596 32.16V36H141.522V29.922H142.134C142.25 29.922 142.33 29.944 142.374 29.988C142.418 30.032 142.448 30.108 142.464 30.216L142.536 31.14ZM157.903 27.402V36H156.883V29.682C156.883 29.598 156.885 29.508 156.889 29.412C156.897 29.316 156.905 29.218 156.913 29.118L153.961 34.494C153.869 34.674 153.729 34.764 153.541 34.764H153.373C153.185 34.764 153.045 34.674 152.953 34.494L149.941 29.094C149.965 29.306 149.977 29.502 149.977 29.682V36H148.957V27.402H149.815C149.919 27.402 149.999 27.412 150.055 27.432C150.111 27.452 150.165 27.508 150.217 27.6L153.187 32.892C153.235 32.988 153.281 33.088 153.325 33.192C153.373 33.296 153.417 33.402 153.457 33.51C153.497 33.402 153.539 33.296 153.583 33.192C153.627 33.084 153.675 32.982 153.727 32.886L156.643 27.6C156.691 27.508 156.743 27.452 156.799 27.432C156.859 27.412 156.941 27.402 157.045 27.402H157.903ZM163.73 32.298C163.73 32.05 163.694 31.824 163.622 31.62C163.554 31.412 163.452 31.234 163.316 31.086C163.184 30.934 163.022 30.818 162.83 30.738C162.638 30.654 162.42 30.612 162.176 30.612C161.664 30.612 161.258 30.762 160.958 31.062C160.662 31.358 160.478 31.77 160.406 32.298H163.73ZM164.594 35.148C164.462 35.308 164.304 35.448 164.12 35.568C163.936 35.684 163.738 35.78 163.526 35.856C163.318 35.932 163.102 35.988 162.878 36.024C162.654 36.064 162.432 36.084 162.212 36.084C161.792 36.084 161.404 36.014 161.048 35.874C160.696 35.73 160.39 35.522 160.13 35.25C159.874 34.974 159.674 34.634 159.53 34.23C159.386 33.826 159.314 33.362 159.314 32.838C159.314 32.414 159.378 32.018 159.506 31.65C159.638 31.282 159.826 30.964 160.07 30.696C160.314 30.424 160.612 30.212 160.964 30.06C161.316 29.904 161.712 29.826 162.152 29.826C162.516 29.826 162.852 29.888 163.16 30.012C163.472 30.132 163.74 30.308 163.964 30.54C164.192 30.768 164.37 31.052 164.498 31.392C164.626 31.728 164.69 32.112 164.69 32.544C164.69 32.712 164.672 32.824 164.636 32.88C164.6 32.936 164.532 32.964 164.432 32.964H160.37C160.382 33.348 160.434 33.682 160.526 33.966C160.622 34.25 160.754 34.488 160.922 34.68C161.09 34.868 161.29 35.01 161.522 35.106C161.754 35.198 162.014 35.244 162.302 35.244C162.57 35.244 162.8 35.214 162.992 35.154C163.188 35.09 163.356 35.022 163.496 34.95C163.636 34.878 163.752 34.812 163.844 34.752C163.94 34.688 164.022 34.656 164.09 34.656C164.178 34.656 164.246 34.69 164.294 34.758L164.594 35.148ZM167.821 36.096C167.341 36.096 166.971 35.962 166.711 35.694C166.455 35.426 166.327 35.04 166.327 34.536V30.816H165.595C165.531 30.816 165.477 30.798 165.433 30.762C165.389 30.722 165.367 30.662 165.367 30.582V30.156L166.363 30.03L166.609 28.152C166.621 28.092 166.647 28.044 166.687 28.008C166.731 27.968 166.787 27.948 166.855 27.948H167.395V30.042H169.153V30.816H167.395V34.464C167.395 34.72 167.457 34.91 167.581 35.034C167.705 35.158 167.865 35.22 168.061 35.22C168.173 35.22 168.269 35.206 168.349 35.178C168.433 35.146 168.505 35.112 168.565 35.076C168.625 35.04 168.675 35.008 168.715 34.98C168.759 34.948 168.797 34.932 168.829 34.932C168.885 34.932 168.935 34.966 168.979 35.034L169.291 35.544C169.107 35.716 168.885 35.852 168.625 35.952C168.365 36.048 168.097 36.096 167.821 36.096ZM171.27 31.14C171.462 30.724 171.698 30.4 171.978 30.168C172.258 29.932 172.6 29.814 173.004 29.814C173.132 29.814 173.254 29.828 173.37 29.856C173.49 29.884 173.596 29.928 173.688 29.988L173.61 30.786C173.586 30.886 173.526 30.936 173.43 30.936C173.374 30.936 173.292 30.924 173.184 30.9C173.076 30.876 172.954 30.864 172.818 30.864C172.626 30.864 172.454 30.892 172.302 30.948C172.154 31.004 172.02 31.088 171.9 31.2C171.784 31.308 171.678 31.444 171.582 31.608C171.49 31.768 171.406 31.952 171.33 32.16V36H170.256V29.922H170.868C170.984 29.922 171.064 29.944 171.108 29.988C171.152 30.032 171.182 30.108 171.198 30.216L171.27 31.14ZM175.755 29.922V36H174.687V29.922H175.755ZM175.983 28.014C175.983 28.118 175.961 28.216 175.917 28.308C175.877 28.396 175.821 28.476 175.749 28.548C175.681 28.616 175.599 28.67 175.503 28.71C175.411 28.75 175.313 28.77 175.209 28.77C175.105 28.77 175.007 28.75 174.915 28.71C174.827 28.67 174.749 28.616 174.681 28.548C174.613 28.476 174.559 28.396 174.519 28.308C174.479 28.216 174.459 28.118 174.459 28.014C174.459 27.91 174.479 27.812 174.519 27.72C174.559 27.624 174.613 27.542 174.681 27.474C174.749 27.402 174.827 27.346 174.915 27.306C175.007 27.266 175.105 27.246 175.209 27.246C175.313 27.246 175.411 27.266 175.503 27.306C175.599 27.346 175.681 27.402 175.749 27.474C175.821 27.542 175.877 27.624 175.917 27.72C175.961 27.812 175.983 27.91 175.983 28.014ZM181.74 31.002C181.708 31.046 181.676 31.08 181.644 31.104C181.612 31.128 181.568 31.14 181.512 31.14C181.452 31.14 181.386 31.116 181.314 31.068C181.242 31.016 181.152 30.96 181.044 30.9C180.94 30.84 180.81 30.786 180.654 30.738C180.502 30.686 180.314 30.66 180.09 30.66C179.79 30.66 179.526 30.714 179.298 30.822C179.07 30.926 178.878 31.078 178.722 31.278C178.57 31.478 178.454 31.72 178.374 32.004C178.298 32.288 178.26 32.606 178.26 32.958C178.26 33.326 178.302 33.654 178.386 33.942C178.47 34.226 178.588 34.466 178.74 34.662C178.896 34.854 179.082 35.002 179.298 35.106C179.518 35.206 179.764 35.256 180.036 35.256C180.296 35.256 180.51 35.226 180.678 35.166C180.846 35.102 180.984 35.032 181.092 34.956C181.204 34.88 181.296 34.812 181.368 34.752C181.444 34.688 181.518 34.656 181.59 34.656C181.678 34.656 181.746 34.69 181.794 34.758L182.094 35.148C181.962 35.312 181.812 35.452 181.644 35.568C181.476 35.684 181.294 35.782 181.098 35.862C180.906 35.938 180.704 35.994 180.492 36.03C180.28 36.066 180.064 36.084 179.844 36.084C179.464 36.084 179.11 36.014 178.782 35.874C178.458 35.734 178.176 35.532 177.936 35.268C177.696 35 177.508 34.672 177.372 34.284C177.236 33.896 177.168 33.454 177.168 32.958C177.168 32.506 177.23 32.088 177.354 31.704C177.482 31.32 177.666 30.99 177.906 30.714C178.15 30.434 178.448 30.216 178.8 30.06C179.156 29.904 179.564 29.826 180.024 29.826C180.452 29.826 180.828 29.896 181.152 30.036C181.48 30.172 181.77 30.366 182.022 30.618L181.74 31.002ZM186.781 30.924C186.733 31.012 186.659 31.056 186.559 31.056C186.499 31.056 186.431 31.034 186.355 30.99C186.279 30.946 186.185 30.898 186.073 30.846C185.965 30.79 185.835 30.74 185.683 30.696C185.531 30.648 185.351 30.624 185.143 30.624C184.963 30.624 184.801 30.648 184.657 30.696C184.513 30.74 184.389 30.802 184.285 30.882C184.185 30.962 184.107 31.056 184.051 31.164C183.999 31.268 183.973 31.382 183.973 31.506C183.973 31.662 184.017 31.792 184.105 31.896C184.197 32 184.317 32.09 184.465 32.166C184.613 32.242 184.781 32.31 184.969 32.37C185.157 32.426 185.349 32.488 185.545 32.556C185.745 32.62 185.939 32.692 186.127 32.772C186.315 32.852 186.483 32.952 186.631 33.072C186.779 33.192 186.897 33.34 186.985 33.516C187.077 33.688 187.123 33.896 187.123 34.14C187.123 34.42 187.073 34.68 186.973 34.92C186.873 35.156 186.725 35.362 186.529 35.538C186.333 35.71 186.093 35.846 185.809 35.946C185.525 36.046 185.197 36.096 184.825 36.096C184.401 36.096 184.017 36.028 183.673 35.892C183.329 35.752 183.037 35.574 182.797 35.358L183.049 34.95C183.081 34.898 183.119 34.858 183.163 34.83C183.207 34.802 183.263 34.788 183.331 34.788C183.403 34.788 183.479 34.816 183.559 34.872C183.639 34.928 183.735 34.99 183.847 35.058C183.963 35.126 184.103 35.188 184.267 35.244C184.431 35.3 184.635 35.328 184.879 35.328C185.087 35.328 185.269 35.302 185.425 35.25C185.581 35.194 185.711 35.12 185.815 35.028C185.919 34.936 185.995 34.83 186.043 34.71C186.095 34.59 186.121 34.462 186.121 34.326C186.121 34.158 186.075 34.02 185.983 33.912C185.895 33.8 185.777 33.706 185.629 33.63C185.481 33.55 185.311 33.482 185.119 33.426C184.931 33.366 184.737 33.304 184.537 33.24C184.341 33.176 184.147 33.104 183.955 33.024C183.767 32.94 183.599 32.836 183.451 32.712C183.303 32.588 183.183 32.436 183.091 32.256C183.003 32.072 182.959 31.85 182.959 31.59C182.959 31.358 183.007 31.136 183.103 30.924C183.199 30.708 183.339 30.52 183.523 30.36C183.707 30.196 183.933 30.066 184.201 29.97C184.469 29.874 184.775 29.826 185.119 29.826C185.519 29.826 185.877 29.89 186.193 30.018C186.513 30.142 186.789 30.314 187.021 30.534L186.781 30.924Z" fill="white"/>
<path d="M157 51H190V54H157V51Z" fill="#202020"/>
<path d="M157 57.5H190V60.5H157V57.5Z" fill="#FFC582"/>
<path d="M157 51H190V54H157V51Z" fill="#FFC582"/>
<path d="M157 63.5H190V66.5H157V63.5Z" fill="#202020"/>
<path d="M157 63.5H190V66.5H157V63.5Z" fill="#202020"/>
<path d="M157 57.5H190V60.5H157V57.5Z" fill="#FFC582"/>
<path d="M125 39H158V42H125V39Z" fill="#202020"/>
<path d="M125 45.5H158V48.5H125V45.5Z" fill="#FFC582"/>
<path d="M125 39H158V42H125V39Z" fill="#FFC582"/>
<path d="M125 51.5H158V54.5H125V51.5Z" fill="#202020"/>
<path d="M125 51.5H158V54.5H125V51.5Z" fill="#202020"/>
<path d="M125 45.5H158V48.5H125V45.5Z" fill="#FFC582"/>
<path d="M125 51H158V54H125V51Z" fill="#202020"/>
<path d="M125 57.5H158V60.5H125V57.5Z" fill="#FFC582"/>
<path d="M125 51H158V54H125V51Z" fill="#FFC582"/>
<path d="M125 63.5H158V66.5H125V63.5Z" fill="#202020"/>
<path d="M125 63.5H158V66.5H125V63.5Z" fill="#202020"/>
<path d="M125 57.5H158V60.5H125V57.5Z" fill="#FFC582"/>
<rect x="44" y="66" width="160" height="90" rx="1" fill="white"/>
<path d="M53.326 79.574V83H52.162V79.574L49.012 74.402H50.032C50.136 74.402 50.218 74.428 50.278 74.48C50.338 74.528 50.39 74.592 50.434 74.672L52.402 78.014C52.474 78.154 52.54 78.286 52.6 78.41C52.66 78.53 52.712 78.652 52.756 78.776C52.8 78.652 52.85 78.53 52.906 78.41C52.962 78.286 53.024 78.154 53.092 78.014L55.054 74.672C55.09 74.604 55.14 74.542 55.204 74.486C55.268 74.43 55.35 74.402 55.45 74.402H56.476L53.326 79.574ZM58.5838 76.826C59.0278 76.826 59.4278 76.9 59.7838 77.048C60.1398 77.196 60.4438 77.406 60.6958 77.678C60.9478 77.95 61.1398 78.28 61.2718 78.668C61.4078 79.052 61.4758 79.482 61.4758 79.958C61.4758 80.438 61.4078 80.87 61.2718 81.254C61.1398 81.638 60.9478 81.966 60.6958 82.238C60.4438 82.51 60.1398 82.72 59.7838 82.868C59.4278 83.012 59.0278 83.084 58.5838 83.084C58.1358 83.084 57.7318 83.012 57.3718 82.868C57.0158 82.72 56.7118 82.51 56.4598 82.238C56.2078 81.966 56.0138 81.638 55.8778 81.254C55.7458 80.87 55.6798 80.438 55.6798 79.958C55.6798 79.482 55.7458 79.052 55.8778 78.668C56.0138 78.28 56.2078 77.95 56.4598 77.678C56.7118 77.406 57.0158 77.196 57.3718 77.048C57.7318 76.9 58.1358 76.826 58.5838 76.826ZM58.5838 82.25C59.1838 82.25 59.6318 82.05 59.9278 81.65C60.2238 81.246 60.3718 80.684 60.3718 79.964C60.3718 79.24 60.2238 78.676 59.9278 78.272C59.6318 77.868 59.1838 77.666 58.5838 77.666C58.2798 77.666 58.0138 77.718 57.7858 77.822C57.5618 77.926 57.3738 78.076 57.2218 78.272C57.0738 78.468 56.9618 78.71 56.8858 78.998C56.8138 79.282 56.7778 79.604 56.7778 79.964C56.7778 80.684 56.9258 81.246 57.2218 81.65C57.5218 82.05 57.9758 82.25 58.5838 82.25ZM67.8284 76.922V83H67.1924C67.0404 83 66.9444 82.926 66.9044 82.778L66.8204 82.124C66.5564 82.416 66.2604 82.652 65.9324 82.832C65.6044 83.008 65.2284 83.096 64.8044 83.096C64.4724 83.096 64.1784 83.042 63.9224 82.934C63.6704 82.822 63.4584 82.666 63.2864 82.466C63.1144 82.266 62.9844 82.024 62.8964 81.74C62.8124 81.456 62.7704 81.142 62.7704 80.798V76.922H63.8384V80.798C63.8384 81.258 63.9424 81.614 64.1504 81.866C64.3624 82.118 64.6844 82.244 65.1164 82.244C65.4324 82.244 65.7264 82.17 65.9984 82.022C66.2744 81.87 66.5284 81.662 66.7604 81.398V76.922H67.8284ZM70.5358 78.14C70.7278 77.724 70.9638 77.4 71.2438 77.168C71.5238 76.932 71.8658 76.814 72.2698 76.814C72.3978 76.814 72.5198 76.828 72.6358 76.856C72.7558 76.884 72.8618 76.928 72.9538 76.988L72.8758 77.786C72.8518 77.886 72.7918 77.936 72.6958 77.936C72.6398 77.936 72.5578 77.924 72.4498 77.9C72.3418 77.876 72.2198 77.864 72.0838 77.864C71.8918 77.864 71.7198 77.892 71.5678 77.948C71.4198 78.004 71.2858 78.088 71.1658 78.2C71.0498 78.308 70.9438 78.444 70.8478 78.608C70.7558 78.768 70.6718 78.952 70.5958 79.16V83H69.5218V76.922H70.1338C70.2498 76.922 70.3298 76.944 70.3738 76.988C70.4178 77.032 70.4478 77.108 70.4638 77.216L70.5358 78.14ZM61.24 88.402L58.558 97H57.514L55.336 90.442C55.316 90.378 55.296 90.31 55.276 90.238C55.26 90.166 55.242 90.09 55.222 90.01C55.202 90.09 55.182 90.166 55.162 90.238C55.142 90.31 55.122 90.378 55.102 90.442L52.912 97H51.868L49.186 88.402H50.152C50.256 88.402 50.342 88.428 50.41 88.48C50.482 88.532 50.528 88.598 50.548 88.678L52.324 94.654C52.352 94.762 52.378 94.878 52.402 95.002C52.43 95.126 52.456 95.258 52.48 95.398C52.508 95.258 52.536 95.126 52.564 95.002C52.596 94.874 52.63 94.758 52.666 94.654L54.688 88.678C54.712 88.61 54.758 88.548 54.826 88.492C54.898 88.432 54.984 88.402 55.084 88.402H55.42C55.524 88.402 55.608 88.428 55.672 88.48C55.736 88.532 55.784 88.598 55.816 88.678L57.832 94.654C57.868 94.758 57.9 94.87 57.928 94.99C57.96 95.11 57.99 95.236 58.018 95.368C58.038 95.236 58.06 95.11 58.084 94.99C58.108 94.87 58.134 94.758 58.162 94.654L59.944 88.678C59.964 88.606 60.008 88.542 60.076 88.486C60.148 88.43 60.234 88.402 60.334 88.402H61.24ZM65.6562 93.298C65.6562 93.05 65.6202 92.824 65.5482 92.62C65.4802 92.412 65.3782 92.234 65.2422 92.086C65.1102 91.934 64.9482 91.818 64.7562 91.738C64.5642 91.654 64.3462 91.612 64.1022 91.612C63.5902 91.612 63.1842 91.762 62.8842 92.062C62.5882 92.358 62.4042 92.77 62.3322 93.298H65.6562ZM66.5202 96.148C66.3882 96.308 66.2302 96.448 66.0462 96.568C65.8622 96.684 65.6642 96.78 65.4522 96.856C65.2442 96.932 65.0282 96.988 64.8042 97.024C64.5802 97.064 64.3582 97.084 64.1382 97.084C63.7182 97.084 63.3302 97.014 62.9742 96.874C62.6222 96.73 62.3162 96.522 62.0562 96.25C61.8002 95.974 61.6002 95.634 61.4562 95.23C61.3122 94.826 61.2402 94.362 61.2402 93.838C61.2402 93.414 61.3042 93.018 61.4322 92.65C61.5642 92.282 61.7522 91.964 61.9962 91.696C62.2402 91.424 62.5382 91.212 62.8902 91.06C63.2422 90.904 63.6382 90.826 64.0782 90.826C64.4422 90.826 64.7782 90.888 65.0862 91.012C65.3982 91.132 65.6662 91.308 65.8902 91.54C66.1182 91.768 66.2962 92.052 66.4242 92.392C66.5522 92.728 66.6162 93.112 66.6162 93.544C66.6162 93.712 66.5982 93.824 66.5622 93.88C66.5262 93.936 66.4582 93.964 66.3582 93.964H62.2962C62.3082 94.348 62.3602 94.682 62.4522 94.966C62.5482 95.25 62.6802 95.488 62.8482 95.68C63.0162 95.868 63.2162 96.01 63.4482 96.106C63.6802 96.198 63.9402 96.244 64.2282 96.244C64.4962 96.244 64.7262 96.214 64.9182 96.154C65.1142 96.09 65.2822 96.022 65.4222 95.95C65.5622 95.878 65.6782 95.812 65.7702 95.752C65.8662 95.688 65.9482 95.656 66.0162 95.656C66.1042 95.656 66.1722 95.69 66.2202 95.758L66.5202 96.148ZM69.002 95.536C69.198 95.8 69.412 95.986 69.644 96.094C69.88 96.202 70.138 96.256 70.418 96.256C70.99 96.256 71.428 96.054 71.732 95.65C72.036 95.246 72.188 94.644 72.188 93.844C72.188 93.1 72.052 92.554 71.78 92.206C71.512 91.854 71.128 91.678 70.628 91.678C70.28 91.678 69.976 91.758 69.716 91.918C69.46 92.078 69.222 92.304 69.002 92.596V95.536ZM69.002 91.798C69.258 91.502 69.546 91.266 69.866 91.09C70.19 90.914 70.562 90.826 70.982 90.826C71.338 90.826 71.658 90.894 71.942 91.03C72.23 91.166 72.474 91.364 72.674 91.624C72.874 91.88 73.026 92.192 73.13 92.56C73.238 92.928 73.292 93.342 73.292 93.802C73.292 94.294 73.232 94.742 73.112 95.146C72.992 95.55 72.818 95.896 72.59 96.184C72.366 96.468 72.092 96.69 71.768 96.85C71.444 97.006 71.08 97.084 70.676 97.084C70.276 97.084 69.938 97.01 69.662 96.862C69.39 96.71 69.152 96.496 68.948 96.22L68.894 96.772C68.862 96.924 68.77 97 68.618 97H67.928V88.162H69.002V91.798ZM78.1829 91.924C78.1349 92.012 78.0609 92.056 77.9609 92.056C77.9009 92.056 77.8329 92.034 77.7569 91.99C77.6809 91.946 77.5869 91.898 77.4749 91.846C77.3669 91.79 77.2369 91.74 77.0849 91.696C76.9329 91.648 76.7529 91.624 76.5449 91.624C76.3649 91.624 76.2029 91.648 76.0589 91.696C75.9149 91.74 75.7909 91.802 75.6869 91.882C75.5869 91.962 75.5089 92.056 75.4529 92.164C75.4009 92.268 75.3749 92.382 75.3749 92.506C75.3749 92.662 75.4189 92.792 75.5069 92.896C75.5989 93 75.7189 93.09 75.8669 93.166C76.0149 93.242 76.1829 93.31 76.3709 93.37C76.5589 93.426 76.7509 93.488 76.9469 93.556C77.1469 93.62 77.3409 93.692 77.5289 93.772C77.7169 93.852 77.8849 93.952 78.0329 94.072C78.1809 94.192 78.2989 94.34 78.3869 94.516C78.4789 94.688 78.5249 94.896 78.5249 95.14C78.5249 95.42 78.4749 95.68 78.3749 95.92C78.2749 96.156 78.1269 96.362 77.9309 96.538C77.7349 96.71 77.4949 96.846 77.2109 96.946C76.9269 97.046 76.5989 97.096 76.2269 97.096C75.8029 97.096 75.4189 97.028 75.0749 96.892C74.7309 96.752 74.4389 96.574 74.1989 96.358L74.4509 95.95C74.4829 95.898 74.5209 95.858 74.5649 95.83C74.6089 95.802 74.6649 95.788 74.7329 95.788C74.8049 95.788 74.8809 95.816 74.9609 95.872C75.0409 95.928 75.1369 95.99 75.2489 96.058C75.3649 96.126 75.5049 96.188 75.6689 96.244C75.8329 96.3 76.0369 96.328 76.2809 96.328C76.4889 96.328 76.6709 96.302 76.8269 96.25C76.9829 96.194 77.1129 96.12 77.2169 96.028C77.3209 95.936 77.3969 95.83 77.4449 95.71C77.4969 95.59 77.5229 95.462 77.5229 95.326C77.5229 95.158 77.4769 95.02 77.3849 94.912C77.2969 94.8 77.1789 94.706 77.0309 94.63C76.8829 94.55 76.7129 94.482 76.5209 94.426C76.3329 94.366 76.1389 94.304 75.9389 94.24C75.7429 94.176 75.5489 94.104 75.3569 94.024C75.1689 93.94 75.0009 93.836 74.8529 93.712C74.7049 93.588 74.5849 93.436 74.4929 93.256C74.4049 93.072 74.3609 92.85 74.3609 92.59C74.3609 92.358 74.4089 92.136 74.5049 91.924C74.6009 91.708 74.7409 91.52 74.9249 91.36C75.1089 91.196 75.3349 91.066 75.6029 90.97C75.8709 90.874 76.1769 90.826 76.5209 90.826C76.9209 90.826 77.2789 90.89 77.5949 91.018C77.9149 91.142 78.1909 91.314 78.4229 91.534L78.1829 91.924ZM80.9623 90.922V97H79.8943V90.922H80.9623ZM81.1903 89.014C81.1903 89.118 81.1683 89.216 81.1243 89.308C81.0843 89.396 81.0283 89.476 80.9563 89.548C80.8883 89.616 80.8063 89.67 80.7103 89.71C80.6183 89.75 80.5203 89.77 80.4163 89.77C80.3123 89.77 80.2143 89.75 80.1223 89.71C80.0343 89.67 79.9563 89.616 79.8883 89.548C79.8203 89.476 79.7663 89.396 79.7263 89.308C79.6863 89.216 79.6663 89.118 79.6663 89.014C79.6663 88.91 79.6863 88.812 79.7263 88.72C79.7663 88.624 79.8203 88.542 79.8883 88.474C79.9563 88.402 80.0343 88.346 80.1223 88.306C80.2143 88.266 80.3123 88.246 80.4163 88.246C80.5203 88.246 80.6183 88.266 80.7103 88.306C80.8063 88.346 80.8883 88.402 80.9563 88.474C81.0283 88.542 81.0843 88.624 81.1243 88.72C81.1683 88.812 81.1903 88.91 81.1903 89.014ZM84.5831 97.096C84.1031 97.096 83.7331 96.962 83.4731 96.694C83.2171 96.426 83.0891 96.04 83.0891 95.536V91.816H82.3571C82.2931 91.816 82.2391 91.798 82.1951 91.762C82.1511 91.722 82.1291 91.662 82.1291 91.582V91.156L83.1251 91.03L83.3711 89.152C83.3831 89.092 83.4091 89.044 83.4491 89.008C83.4931 88.968 83.5491 88.948 83.6171 88.948H84.1571V91.042H85.9151V91.816H84.1571V95.464C84.1571 95.72 84.2191 95.91 84.3431 96.034C84.4671 96.158 84.6271 96.22 84.8231 96.22C84.9351 96.22 85.0311 96.206 85.1111 96.178C85.1951 96.146 85.2671 96.112 85.3271 96.076C85.3871 96.04 85.4371 96.008 85.4771 95.98C85.5211 95.948 85.5591 95.932 85.5911 95.932C85.6471 95.932 85.6971 95.966 85.7411 96.034L86.0531 96.544C85.8691 96.716 85.6471 96.852 85.3871 96.952C85.1271 97.048 84.8591 97.096 84.5831 97.096ZM91.0507 93.298C91.0507 93.05 91.0147 92.824 90.9427 92.62C90.8747 92.412 90.7727 92.234 90.6367 92.086C90.5047 91.934 90.3427 91.818 90.1507 91.738C89.9587 91.654 89.7407 91.612 89.4967 91.612C88.9847 91.612 88.5787 91.762 88.2787 92.062C87.9827 92.358 87.7987 92.77 87.7267 93.298H91.0507ZM91.9147 96.148C91.7827 96.308 91.6247 96.448 91.4407 96.568C91.2567 96.684 91.0587 96.78 90.8467 96.856C90.6387 96.932 90.4227 96.988 90.1987 97.024C89.9747 97.064 89.7527 97.084 89.5327 97.084C89.1127 97.084 88.7247 97.014 88.3687 96.874C88.0167 96.73 87.7107 96.522 87.4507 96.25C87.1947 95.974 86.9947 95.634 86.8507 95.23C86.7067 94.826 86.6347 94.362 86.6347 93.838C86.6347 93.414 86.6987 93.018 86.8267 92.65C86.9587 92.282 87.1467 91.964 87.3907 91.696C87.6347 91.424 87.9327 91.212 88.2847 91.06C88.6367 90.904 89.0327 90.826 89.4727 90.826C89.8367 90.826 90.1727 90.888 90.4807 91.012C90.7927 91.132 91.0607 91.308 91.2847 91.54C91.5127 91.768 91.6907 92.052 91.8187 92.392C91.9467 92.728 92.0107 93.112 92.0107 93.544C92.0107 93.712 91.9927 93.824 91.9567 93.88C91.9207 93.936 91.8527 93.964 91.7527 93.964H87.6907C87.7027 94.348 87.7547 94.682 87.8467 94.966C87.9427 95.25 88.0747 95.488 88.2427 95.68C88.4107 95.868 88.6107 96.01 88.8427 96.106C89.0747 96.198 89.3347 96.244 89.6227 96.244C89.8907 96.244 90.1207 96.214 90.3127 96.154C90.5087 96.09 90.6767 96.022 90.8167 95.95C90.9567 95.878 91.0727 95.812 91.1647 95.752C91.2607 95.688 91.3427 95.656 91.4107 95.656C91.4987 95.656 91.5667 95.69 91.6147 95.758L91.9147 96.148Z" fill="black"/>
<rect x="142" y="71" width="56" height="40" fill="#F7C8C8"/>
<rect x="51" y="107" width="78" height="4" fill="#F7C8C8"/>
<path d="M51 115H129V119H51V115Z" fill="#F7C8C8"/>
<rect x="51" y="107" width="78" height="4" fill="#F7C8C8"/>
<path d="M51 122H199V126H51V122Z" fill="#F7C8C8"/>
<path d="M51 129.5H199V133.5H51V129.5Z" fill="#F7C8C8"/>
<path d="M51 137H199V141H51V137Z" fill="#F7C8C8"/>
<path d="M51 144.5H199V148.5H51V144.5Z" fill="#F7C8C8"/>
</svg>
